<svg width="101" height="101" viewBox="0 0 101 101" fill="none" xmlns="http://www.w3.org/2000/svg">
<path d="M50.6423 92.5916C61.6929 92.5916 72.291 88.2018 80.105 80.3878C87.9191 72.5737 92.3089 61.9757 92.3089 50.925C92.3089 45.4532 91.2312 40.0351 89.1372 34.9798C87.0433 29.9246 83.9741 25.3313 80.105 21.4622C76.2359 17.5931 71.6426 14.5239 66.5874 12.43C61.5322 10.336 56.114 9.2583 50.6423 9.2583C45.1705 9.2583 39.7523 10.336 34.6971 12.43C29.6419 14.5239 25.0486 17.5931 21.1795 21.4622C13.3655 29.2762 8.97559 39.8743 8.97559 50.925C8.97559 61.9757 13.3655 72.5737 21.1795 80.3878C25.0486 84.2569 29.6419 87.326 34.6971 89.42C39.7523 91.5139 45.1705 92.5916 50.6423 92.5916ZM50.6423 84.2583C41.8017 84.2583 33.3232 80.7464 27.072 74.4952C20.8208 68.244 17.3089 59.7655 17.3089 50.925C17.3089 42.0844 20.8208 33.606 27.072 27.3547C33.3232 21.1035 41.8017 17.5916 50.6423 17.5916C59.4828 17.5916 67.9613 21.1035 74.2125 27.3547C80.4637 33.606 83.9756 42.0844 83.9756 50.925C83.9756 59.7655 80.4637 68.244 74.2125 74.4952C67.9613 80.7464 59.4828 84.2583 50.6423 84.2583ZM71.4756 59.2583L50.6423 38.425L29.8089 59.2583H71.4756Z" fill="#F300B4"/>
</svg>
