<svg width="50" height="50" viewBox="0 0 50 50" fill="none" xmlns="http://www.w3.org/2000/svg">
<path d="M17.1041 25L14.3333 26.8541V23.1458L17.1041 25ZM23.8958 20.4583V15.2916L15.2291 21.0833L19.0833 23.6666L23.8958 20.4583ZM34.7916 21.0833L26.1041 15.2916V20.4583L30.9166 23.6666L34.7916 21.0833ZM15.2291 28.9166L23.8958 34.7083V29.5416L19.0833 26.3333L15.2291 28.9166ZM26.1041 29.5416V34.7083L34.7916 28.9166L30.9166 26.3333L26.1041 29.5416ZM25 22.375L21.0833 25L25 27.625L28.9166 25L25 22.375ZM45.8333 25C45.8333 36.4583 36.4583 45.8333 25 45.8333C13.5416 45.8333 4.16663 36.4583 4.16663 25C4.16663 13.5416 13.5416 4.16663 25 4.16663C36.4583 4.16663 45.8333 13.5416 45.8333 25ZM37.875 21.0833C37.875 21.0208 37.875 20.9791 37.875 20.9375L37.8541 20.8333L37.8333 20.7291C37.8125 20.7083 37.8125 20.6875 37.7916 20.6458L37.7708 20.6041L37.7291 20.5208L37.7083 20.4791L37.6666 20.4166L37.625 20.3541L37.5625 20.2916L37.5 20.25V20.2083L37.4166 20.1666L37.3958 20.1458L25.625 12.3125C25.25 12.0625 24.7708 12.0625 24.3958 12.3125L12.6041 20.1458V20.1666L12.5 20.2083C12.5 20.2291 12.5 20.25 12.5 20.25L12.4375 20.2916L12.375 20.3541L12.3541 20.4166L12.2916 20.4791L12.2708 20.5208L12.2291 20.6041L12.2083 20.6458L12.1666 20.7291V20.8333H12.1458L12.125 20.9375C12.125 20.9791 12.125 21.0208 12.125 21.0833V28.9166C12.125 28.9791 12.125 29.0208 12.125 29.0625L12.1458 29.1666H12.1666V29.2708C12.1875 29.2916 12.1875 29.3125 12.2083 29.3541L12.2291 29.3958L12.2708 29.4791L12.2916 29.5208L12.3333 29.5833L12.375 29.6458C12.3958 29.6666 12.4166 29.6875 12.4375 29.7083L12.5 29.75V29.7916L12.5833 29.8333L12.6041 29.8541L24.3958 37.7083C24.5625 37.8333 24.7916 37.875 25 37.875C25.2083 37.875 25.4375 37.8125 25.625 37.7083L37.3958 29.8541L37.4166 29.8333L37.5 29.7916V29.75L37.5625 29.7083L37.625 29.6458L37.6666 29.5833L37.7083 29.5208L37.7291 29.4791L37.7708 29.3958L37.7916 29.3541L37.8333 29.2708V29.1666H37.8541L37.875 29.0625C37.875 29.0208 37.875 28.9791 37.875 28.9166V21.0833ZM35.6666 26.8541V23.1458L32.8958 25L35.6666 26.8541Z" fill="white"/>
</svg>
