<svg width="50" height="50" viewBox="0 0 50 50" fill="none" xmlns="http://www.w3.org/2000/svg">
<path d="M24.9998 4.16666C27.7357 4.16666 30.4448 4.70553 32.9724 5.7525C35.5 6.79947 37.7967 8.33404 39.7312 10.2686C41.6658 12.2032 43.2004 14.4998 44.2473 17.0274C45.2943 19.555 45.8332 22.2641 45.8332 25C45.8332 30.5253 43.6382 35.8244 39.7312 39.7314C35.8242 43.6384 30.5252 45.8333 24.9998 45.8333C22.264 45.8333 19.5549 45.2945 17.0273 44.2475C14.4996 43.2005 12.203 41.6659 10.2684 39.7314C6.36144 35.8244 4.1665 30.5253 4.1665 25C4.1665 19.4746 6.36144 14.1756 10.2684 10.2686C14.1755 6.36159 19.4745 4.16666 24.9998 4.16666ZM20.8332 31.9375C21.1665 33.0625 21.1248 34.1042 20.8332 35.0625C20.8332 35.1667 20.7498 35.2708 20.7082 35.4167C20.6665 35.4167 20.6248 35.5625 20.5623 35.6667C20.3332 36.1667 19.9998 36.6458 19.604 37.0625C18.3957 38.3958 16.6665 38.8958 15.979 38.4792C15.1873 38.0208 15.6248 36.1458 16.9998 34.6667C18.4998 33.0833 20.6665 32.0417 20.6665 32.0417L20.8332 31.9375ZM38.0623 13.0833C37.1248 9.37499 30.979 8.16666 25.1873 10.2292C21.729 11.4583 17.979 13.375 15.2915 15.8958C12.104 18.8958 11.5832 21.5 11.7915 22.5833C12.4998 26.4167 17.7915 28.9375 19.9582 30.7917V30.8125C19.3332 31.125 14.6665 33.4792 13.5415 35.8958C12.4165 38.4375 13.7498 40.2708 14.5832 40.5208C17.3748 41.2708 20.1873 39.9167 21.6873 37.6458C23.1457 35.4792 23.0415 32.6667 22.3957 31.25C23.2707 31.0417 24.2915 30.9375 25.5832 31.0833C29.2498 31.5208 29.9582 33.7917 29.8123 34.75C29.6873 35.7083 28.9165 36.2292 28.6665 36.3958C28.4165 36.5417 28.3332 36.6042 28.354 36.7292C28.3748 36.8958 28.4998 36.8958 28.7082 36.8542C29.0207 36.7917 30.6457 36.0833 30.7082 34.3125C30.7915 32.0625 28.6457 29.5625 24.854 29.625C23.2915 29.6667 22.3123 29.8125 21.604 30.0833L21.4373 29.8958C19.0832 27.3958 14.7498 25.625 14.9373 22.25C14.9998 21.0208 15.4165 17.8125 23.2707 13.8958C29.6873 10.6875 34.8332 11.5625 35.729 13.5417C36.9998 16.3125 32.979 21.5 26.3123 22.25C23.7707 22.5417 22.4165 21.5417 22.0832 21.1875C21.729 20.8333 21.6873 20.7708 21.5623 20.8333C21.3332 20.9792 21.479 21.3125 21.5623 21.5208C21.7498 22.0417 22.5832 22.9167 23.9582 23.4167C25.1873 23.8125 28.1873 24.0417 31.7915 22.6458C35.8332 21.0833 38.9998 16.7292 38.0623 13.0833Z" fill="#1E2127"/>
</svg>
